<?xml version="1.0" standalone="no"?>
<!DOCTYPE svg PUBLIC "-//W3C//DTD SVG 20010904//EN"
 "http://www.w3.org/TR/2001/REC-SVG-20010904/DTD/svg10.dtd">
<svg version="1.0" xmlns="http://www.w3.org/2000/svg"
 width="776.000000pt" height="776.000000pt" viewBox="0 0 776.000000 776.000000"
 preserveAspectRatio="xMidYMid meet">
<metadata>
Created by potrace 1.14, written by Peter Selinger 2001-2017
</metadata>
<g transform="translate(0.000000,776.000000) scale(0.100000,-0.100000)"
fill="#000000" stroke="none">
<path d="M2569 6675 c-2 -2 -31 -6 -63 -9 -55 -6 -117 -18 -201 -40 -281 -71
-597 -260 -806 -481 -64 -68 -98 -108 -126 -150 -16 -22 -30 -42 -33 -45 -12
-12 -104 -159 -106 -170 0 -3 -20 -45 -43 -95 -60 -129 -58 -123 -85 -200 -28
-77 -94 -312 -101 -360 -3 -16 -8 -41 -10 -55 -28 -137 -41 -222 -50 -325 -3
-33 -8 -71 -10 -85 -13 -79 -19 -254 -20 -563 l0 -349 -130 6 c-161 6 -322 20
-375 31 -90 19 -197 0 -267 -47 -131 -88 -177 -257 -110 -401 29 -61 47 -83
106 -125 55 -40 100 -53 221 -67 30 -3 71 -8 90 -11 66 -9 287 -23 422 -26 58
-1 98 -7 99 -13 0 -5 2 -19 3 -30 2 -11 6 -47 10 -80 4 -33 9 -71 11 -85 2
-14 6 -50 10 -80 3 -30 10 -77 15 -105 5 -27 12 -70 15 -95 13 -91 18 -119 52
-310 19 -107 37 -208 40 -225 2 -16 18 -93 34 -170 16 -77 32 -153 35 -169 3
-16 7 -32 9 -36 2 -4 7 -20 9 -36 6 -30 12 -58 22 -97 3 -12 7 -33 10 -47 16
-80 55 -213 72 -247 27 -51 101 -119 160 -145 71 -32 180 -30 252 5 62 30 123
84 142 128 7 16 16 29 19 29 4 0 10 15 14 33 15 63 13 136 -6 218 -11 46 -22
95 -25 109 -3 14 -18 79 -34 145 -15 66 -31 138 -36 160 -4 22 -8 45 -9 50 -3
11 -43 207 -50 245 -3 14 -10 52 -15 85 -6 33 -14 79 -19 103 -5 23 -6 42 -3
42 2 0 -1 6 -7 13 -6 8 -9 16 -6 18 2 3 -4 54 -15 115 -10 60 -21 130 -24 156
-3 26 -10 76 -15 110 -5 35 -12 86 -16 113 -3 28 -8 64 -11 81 -7 38 -3 41 67
50 30 3 65 8 79 9 39 5 102 15 135 22 17 4 39 7 50 8 34 4 98 15 135 25 19 5
47 12 63 15 15 3 39 8 55 11 100 20 361 102 497 156 99 39 345 155 355 167 3
3 21 15 40 25 44 24 233 146 240 155 3 4 23 20 45 37 118 87 266 237 400 406
74 93 245 401 245 441 0 7 4 17 8 23 11 11 40 91 46 124 2 14 9 45 14 70 11
47 17 84 29 172 10 72 9 349 -1 423 -5 33 -10 67 -11 75 -1 8 -5 29 -9 45 -4
17 -12 50 -18 75 -23 98 -113 329 -137 350 -3 3 -11 14 -17 25 -26 48 -39 70
-44 75 -3 3 -25 32 -49 64 -120 161 -313 314 -513 405 -59 27 -172 71 -183 71
-3 0 -6 0 -7 1 -2 0 -10 2 -18 4 -8 1 -35 8 -60 15 -25 7 -58 14 -75 16 -16 3
-43 7 -60 10 -34 7 -341 15 -346 9z m299 -649 c5 -3 27 -8 48 -12 22 -3 50
-12 64 -19 14 -7 40 -16 58 -20 17 -3 32 -10 32 -15 0 -5 10 -12 23 -16 39
-12 144 -92 197 -151 95 -106 155 -234 184 -393 14 -74 15 -297 3 -350 -4 -14
-9 -38 -11 -55 -11 -70 -20 -95 -62 -185 -79 -167 -149 -266 -283 -401 -53
-52 -116 -112 -141 -131 -45 -36 -149 -108 -156 -108 -1 0 -22 -13 -46 -29
-66 -44 -238 -124 -403 -186 -11 -5 -24 -9 -30 -11 -5 -2 -48 -15 -95 -29 -86
-27 -250 -69 -305 -79 -16 -2 -40 -7 -51 -10 -12 -2 -39 -7 -60 -10 -22 -4
-46 -8 -54 -11 -8 -2 -37 -6 -65 -10 -77 -9 -120 -17 -124 -21 -2 -2 -12 1
-22 6 -17 9 -17 30 -15 338 3 297 6 375 21 497 2 22 7 67 10 100 4 33 9 71 11
85 2 14 7 42 10 63 7 48 12 72 14 72 1 0 3 9 5 20 11 77 62 258 100 354 76
195 142 300 265 419 165 162 376 272 573 298 23 4 44 8 46 10 6 6 248 -3 259
-10z"/>
<path d="M6858 5975 c-2 -2 -28 -6 -58 -9 -53 -6 -95 -13 -95 -16 0 -1 -8 -3
-18 -5 -31 -6 -150 -58 -187 -82 -106 -69 -198 -161 -273 -274 -31 -47 -57
-89 -57 -92 0 -4 -13 -35 -29 -69 -61 -135 -124 -383 -155 -608 -33 -246 -41
-381 -41 -705 1 -230 8 -460 14 -460 1 0 4 -31 6 -70 7 -120 31 -306 61 -475
8 -47 17 -96 19 -110 2 -14 8 -45 14 -70 5 -25 12 -58 15 -75 3 -16 12 -54 20
-83 l14 -52 -46 -58 c-26 -31 -77 -88 -113 -126 l-66 -69 -19 54 c-10 30 -17
57 -16 62 1 4 -2 7 -7 7 -5 0 -15 16 -21 36 -30 89 -190 284 -310 376 -95 73
-291 154 -430 179 -57 10 -239 13 -295 5 -73 -10 -258 -65 -263 -78 -2 -4 -10
-8 -18 -8 -13 0 -52 -18 -64 -30 -3 -3 -21 -14 -40 -24 -113 -62 -258 -205
-326 -321 -14 -25 -29 -45 -32 -45 -4 0 -20 21 -37 48 -31 50 -125 165 -160
195 -58 52 -168 128 -225 156 -36 18 -77 39 -92 47 -16 9 -28 12 -28 9 0 -3
-9 -1 -21 5 -20 11 -32 14 -93 26 -16 2 -32 6 -35 8 -25 15 -259 23 -317 12
-12 -2 -37 -7 -55 -10 -57 -9 -149 -35 -178 -51 -16 -8 -31 -11 -35 -8 -3 4
-6 1 -6 -5 0 -7 -7 -12 -15 -12 -9 0 -45 -18 -81 -40 -36 -22 -70 -40 -74 -40
-5 0 -10 -3 -12 -7 -1 -5 -27 -28 -57 -53 -30 -25 -72 -63 -93 -85 -42 -44
-163 -215 -152 -215 3 0 0 -7 -7 -16 -7 -9 -19 -33 -27 -53 -24 -65 -54 -156
-58 -176 -2 -11 -7 -38 -11 -60 -13 -67 -8 -295 7 -355 7 -30 14 -62 16 -70 1
-8 9 -37 19 -65 98 -281 333 -516 610 -613 124 -43 187 -54 324 -56 265 -5
520 97 711 285 57 56 145 167 163 207 6 12 13 22 16 22 3 -1 26 -32 51 -71 75
-116 194 -231 313 -301 123 -72 246 -116 372 -135 62 -9 224 -8 289 1 262 36
550 181 869 439 94 76 109 89 270 240 75 71 139 127 143 125 3 -2 33 -54 65
-115 32 -62 74 -138 94 -168 19 -30 35 -58 35 -61 0 -3 6 -12 13 -19 25 -29
33 -40 40 -57 3 -10 11 -18 17 -18 5 0 10 -5 10 -12 0 -41 281 -332 356 -368
58 -29 62 -30 139 -34 59 -2 73 1 144 32 65 28 117 82 151 157 24 51 27 71 25
135 -3 109 -27 154 -141 270 -147 150 -249 297 -338 485 -20 44 -41 88 -47 98
-14 25 -70 169 -74 189 -2 9 -8 25 -14 36 -8 15 -2 28 30 70 21 29 39 57 39
62 0 6 3 10 8 10 4 0 16 15 27 32 11 18 25 39 30 48 83 123 145 221 145 230 0
5 4 10 9 10 5 0 11 8 14 18 4 9 29 55 56 102 59 100 195 372 244 485 33 78 90
223 93 238 1 4 3 9 4 12 1 3 3 8 5 13 1 4 4 14 8 22 6 17 50 150 53 165 5 18
34 130 40 150 3 11 7 29 9 40 3 11 7 31 10 45 12 51 33 177 39 225 4 28 9 66
12 85 8 47 14 452 7 464 -3 4 -7 29 -8 55 -5 83 -26 197 -50 266 -1 6 -6 21
-11 35 -14 47 -83 172 -124 224 -121 158 -309 271 -501 301 -40 6 -147 13
-151 10z m102 -664 c80 -51 105 -152 105 -426 -1 -134 -8 -244 -21 -308 -2
-12 -6 -35 -9 -52 -13 -80 -78 -332 -95 -370 -5 -11 -18 -48 -29 -82 -35 -104
-90 -231 -175 -401 -124 -249 -113 -235 -121 -156 -3 27 -8 67 -10 89 -26 217
-26 760 0 1000 11 106 16 145 21 166 3 13 7 42 10 64 18 138 109 415 136 415
5 0 8 5 8 11 0 14 38 47 73 63 33 15 71 10 107 -13z m-3745 -2764 c61 -9 91
-21 135 -51 56 -37 106 -88 115 -115 3 -12 11 -21 16 -21 5 0 8 -3 7 -7 -1 -5
4 -21 11 -38 20 -46 22 -167 5 -224 -55 -185 -259 -297 -442 -242 -109 33
-183 98 -230 201 -21 44 -26 71 -26 135 0 44 2 89 5 100 36 135 162 246 303
264 28 4 56 6 61 5 6 -2 24 -5 40 -7z m1845 -24 c19 -9 38 -16 42 -15 17 3
118 -112 144 -164 24 -51 28 -71 28 -149 1 -83 -2 -96 -32 -157 -79 -160 -255
-238 -422 -188 -269 81 -348 420 -141 608 102 93 258 120 381 65z"/>
</g>
</svg>
